<?xml version="1.0"?>
<svg xmlns="http://www.w3.org/2000/svg" height="512px" viewBox="0 -4 512 511" width="512px" class=""><g><path d="m494.46875 283.527344c-1.035156-8.660156-3.976562-16.984375-8.601562-24.378906.320312-.847657.5-1.742188.53125-2.648438v-238.933594c0-4.710937-3.820313-8.53125-8.53125-8.53125-4.714844 0-8.535157 3.820313-8.535157 8.53125v46.488282c-26.261719-23.695313-88.933593-63.554688-213.332031-63.554688s-187.070312 39.859375-213.332031 63.558594v-46.492188c0-4.710937-3.820313-8.53125-8.535157-8.53125-4.710937 0-8.53125 3.820313-8.53125 8.53125v238.933594c.03125.90625.210938 1.796875.53125 2.644531-4.625 7.394531-7.566406 15.722657-8.601562 24.382813-10.433594 3.449218-17.4960938 13.183594-17.53125 24.171875v136.535156c.015625 14.132813 11.46875 25.582031 25.601562 25.597656h8.53125c.019532 18.84375 15.289063 34.113281 34.132813 34.132813h17.066406c18.84375-.019532 34.113281-15.289063 34.132813-34.132813h273.070312c.015625 18.84375 15.289063 34.117188 34.132813 34.132813h17.066406c18.84375-.015625 34.113281-15.289063 34.132813-34.132813h8.53125c14.132812-.015625 25.585937-11.464843 25.601562-25.597656v-136.535156c-.035156-10.988281-7.097656-20.722657-17.53125-24.171875zm-451.800781-160.679688c9.289062-11.433594 64.980469-71.148437 213.332031-71.148437 148.394531 0 204.070312 59.738281 213.332031 71.144531v118.839844c-9.996093-7.019532-21.914062-10.789063-34.132812-10.785156v-42.664063c-.027344-23.554687-19.113281-42.640625-42.664063-42.667969h-102.402344c-13.480468.035156-26.148437 6.46875-34.132812 17.332032-7.984375-10.863282-20.652344-17.296876-34.132812-17.332032h-102.402344c-23.550782.027344-42.636719 19.113282-42.664063 42.667969v42.664063c-12.21875-.003907-24.136719 3.761718-34.132812 10.785156zm51.199219 108.050782v-42.664063c.015624-14.132813 11.46875-25.585937 25.597656-25.601563h102.402344c14.132812.015626 25.582031 11.46875 25.597656 25.601563v42.664063zm170.667968-42.664063c.015625-14.132813 11.464844-25.585937 25.597656-25.601563h102.402344c14.128906.015626 25.582032 11.46875 25.597656 25.601563v42.664063h-153.597656zm-187.734375 59.730469h358.398438c20.265625.027344 37.726562 14.285156 41.808593 34.136718h-442.015624c4.078124-19.851562 21.542968-34.109374 41.808593-34.136718zm179.199219-230.398438c148.394531 0 204.070312 59.738282 213.332031 71.144532v9.476562c-26.261719-23.695312-88.933593-63.554688-213.332031-63.554688s-187.070312 39.863282-213.332031 63.558594v-9.476562c9.289062-11.433594 64.980469-71.148438 213.332031-71.148438zm-170.667969 469.332032h-17.066406c-9.421875-.007813-17.054687-7.644532-17.066406-17.066407h51.199219c-.007813 9.421875-7.644532 17.058594-17.066407 17.066407zm358.402344 0h-17.066406c-9.421875-.011719-17.054688-7.644532-17.066407-17.066407h51.199219c-.011719 9.421875-7.648437 17.054688-17.066406 17.066407zm51.199219-42.664063c-.003906 4.710937-3.820313 8.53125-8.535156 8.53125h-460.796876c-4.710937-.003906-8.53125-3.820313-8.535156-8.53125v-136.535156c.003906-4.710938 3.824219-8.527344 8.535156-8.53125h460.796876c4.714843 0 8.53125 3.820312 8.535156 8.53125zm0 0" data-original="#000000" class="active-path" data-old_color="#FFC100" fill="#F2711B"/><path d="m128 188.234375c-4.710938 0-8.535156 3.820313-8.535156 8.53125v8.535156c0 4.710938 3.824218 8.53125 8.535156 8.53125s8.535156-3.820312 8.535156-8.53125v-8.535156c0-4.710937-3.824218-8.53125-8.535156-8.53125zm0 0" data-original="#000000" class="active-path" data-old_color="#FFC100" fill="#F2711B"/><path d="m213.332031 188.234375c-4.710937 0-8.53125 3.820313-8.53125 8.53125v8.535156c0 4.710938 3.820313 8.53125 8.53125 8.53125 4.714844 0 8.535157-3.820312 8.535157-8.53125v-8.535156c0-4.710937-3.820313-8.53125-8.535157-8.53125zm0 0" data-original="#000000" class="active-path" data-old_color="#FFC100" fill="#F2711B"/><path d="m298.667969 188.234375c-4.714844 0-8.535157 3.820313-8.535157 8.53125v8.535156c0 4.710938 3.820313 8.53125 8.535157 8.53125 4.710937 0 8.53125-3.820312 8.53125-8.53125v-8.535156c0-4.710937-3.820313-8.53125-8.53125-8.53125zm0 0" data-original="#000000" class="active-path" data-old_color="#FFC100" fill="#F2711B"/><path d="m384 188.234375c-4.710938 0-8.535156 3.820313-8.535156 8.53125v8.535156c0 4.710938 3.824218 8.53125 8.535156 8.53125s8.535156-3.820312 8.535156-8.53125v-8.535156c0-4.710937-3.824218-8.53125-8.535156-8.53125zm0 0" data-original="#000000" class="active-path" data-old_color="#FFC100" fill="#F2711B"/><path d="m59.734375 316.234375h-17.066406c-4.714844 0-8.535157 3.820313-8.535157 8.53125 0 4.714844 3.820313 8.535156 8.535157 8.535156h17.066406c4.710937 0 8.53125-3.820312 8.53125-8.535156 0-4.710937-3.820313-8.53125-8.53125-8.53125zm0 0" data-original="#000000" class="active-path" data-old_color="#FFC100" fill="#F2711B"/><path d="m341.332031 316.234375h-247.464843c-4.714844 0-8.535157 3.820313-8.535157 8.53125 0 4.714844 3.820313 8.535156 8.535157 8.535156h247.464843c4.714844 0 8.535157-3.820312 8.535157-8.535156 0-4.710937-3.820313-8.53125-8.535157-8.53125zm0 0" data-original="#000000" class="active-path" data-old_color="#FFC100" fill="#F2711B"/></g> </svg>
