<?xml version="1.0"?>
<svg xmlns="http://www.w3.org/2000/svg" height="512px" viewBox="-16 0 512 512" width="512px"><g><path d="m239.902344 331.074219h29.988281v59.976562h-29.988281zm0 0" data-original="#000000" class="active-path" data-old_color="#000000" fill="#F2711B"/><path d="m359.851562 331.074219h29.988282v59.976562h-29.988282zm0 0" data-original="#000000" class="active-path" data-old_color="#000000" fill="#F2711B"/><path d="m239.902344 421.039062h29.988281v90.960938h-29.988281zm0 0" data-original="#000000" class="active-path" data-old_color="#000000" fill="#F2711B"/><path d="m359.851562 421.039062h29.988282v90.960938h-29.988282zm0 0" data-original="#000000" class="active-path" data-old_color="#000000" fill="#F2711B"/><path d="m299.875 391.050781h29.988281v90.960938h-29.988281zm0 0" data-original="#000000" class="active-path" data-old_color="#000000" fill="#F2711B"/><path d="m254.894531 31.199219h-164.929687v-8.707031l-89.964844-22.492188v153.359375l89.964844-22.492187v-9.707032h164.929687c8.269531 0 14.996094 6.726563 14.996094 14.996094v14.992188h-14.996094c-36.976562 0-67.761719 26.917968-73.855469 62.175781-18.027343 5.867187-31.101562 22.824219-31.101562 42.78125v44.984375h149.9375v59.972656h29.988281v-59.972656h149.9375v-44.984375c0-19.957031-13.070312-36.914063-31.101562-42.78125-6.089844-35.257813-36.878907-62.175781-73.855469-62.175781h-14.992188v-14.992188c0-57.875-47.082031-104.957031-104.957031-104.957031zm-194.917969 76.257812-29.988281 7.496094v-76.546875l29.988281 7.496094zm389.839844 163.640625h-269.890625v-14.992187c0-8.269531 6.726563-14.992188 14.992188-14.992188h239.902343c8.269532 0 14.996094 6.722657 14.996094 14.992188zm-74.972656-89.960937c19.546875 0 36.214844 12.535156 42.40625 29.988281h-204.757812c6.191406-17.453125 22.855468-29.988281 42.402343-29.988281h44.980469v-44.980469c0-24.804688-20.175781-44.984375-44.980469-44.984375h-164.929687v-29.984375h164.929687c41.339844 0 74.96875 33.628906 74.96875 74.96875v44.980469zm0 0" data-original="#000000" class="active-path" data-old_color="#000000" fill="#F2711B"/></g> </svg>
